<?xml version="1.0" standalone="no"?>
<!DOCTYPE svg PUBLIC "-//W3C//DTD SVG 20010904//EN"
 "http://www.w3.org/TR/2001/REC-SVG-20010904/DTD/svg10.dtd">
<svg version="1.0" xmlns="http://www.w3.org/2000/svg"
 width="1000.000000pt" height="332.000000pt" viewBox="0 0 1000.000000 332.000000"
 preserveAspectRatio="xMidYMid meet">
<metadata>
Created by potrace 1.14, written by Peter Selinger 2001-2017
</metadata>
<g transform="translate(0.000000,332.000000) scale(0.100000,-0.100000)"
fill="#000000" stroke="none">
<path d="M6290 1958 c0 -859 4 -1346 10 -1388 33 -204 172 -345 446 -453 174
-69 285 -109 290 -105 7 8 194 472 194 482 0 6 -96 54 -213 106 l-212 95 -6
835 c-3 459 -7 1041 -8 1293 l-1 457 -250 0 -250 0 0 -1322z"/>
<path d="M1163 2660 c-305 -32 -571 -164 -784 -388 -107 -112 -176 -213 -244
-354 -208 -435 -169 -902 112 -1338 74 -115 260 -297 376 -369 341 -210 752
-258 1137 -132 63 21 147 55 186 74 78 39 228 138 289 190 l40 35 -152 158
c-83 88 -169 176 -190 196 l-38 37 -65 -50 c-88 -66 -199 -123 -296 -151 -110
-31 -277 -31 -387 0 -202 57 -368 184 -482 367 -131 210 -151 462 -55 694 100
244 315 431 557 485 129 29 303 17 431 -28 l42 -15 14 32 c7 18 54 127 104
243 51 117 92 216 92 222 0 21 -247 77 -407 92 -119 11 -172 11 -280 0z"/>
<path d="M4495 2654 c-197 -33 -425 -127 -570 -236 -210 -157 -385 -404 -470
-663 -86 -263 -80 -568 16 -842 33 -94 127 -283 144 -289 9 -4 2401 1009 2414
1022 9 9 -48 169 -95 265 -196 404 -556 673 -999 744 -110 18 -331 18 -440 -1z
m435 -551 c47 -13 118 -43 159 -66 86 -49 231 -180 216 -195 -8 -7 -1277 -557
-1359 -588 -17 -7 -18 -2 -11 77 21 257 107 454 260 597 198 186 472 251 735
175z"/>
<path d="M2192 2172 c-56 -130 -102 -241 -102 -247 0 -5 96 -52 214 -103 l213
-94 6 -211 c4 -115 7 -491 7 -834 l0 -623 253 0 254 0 6 302 c4 166 7 558 7
872 0 620 -3 653 -56 757 -54 107 -194 225 -349 295 -74 33 -323 124 -339 124
-6 0 -57 -107 -114 -238z"/>
<path d="M7432 1872 c-62 -143 -102 -351 -102 -527 0 -207 45 -397 139 -590
188 -384 544 -658 951 -731 104 -19 308 -21 415 -4 189 29 406 116 583 234 53
35 107 73 119 83 l21 18 -140 155 c-77 85 -158 174 -180 198 l-39 43 -52 -46
c-68 -60 -187 -119 -283 -141 -58 -12 -106 -15 -198 -12 -105 4 -135 10 -224
40 -137 47 -248 115 -347 213 -221 218 -282 503 -169 798 14 37 25 70 23 71
-6 5 -488 246 -493 246 -2 0 -13 -22 -24 -48z"/>
<path d="M5225 734 c-220 -195 -512 -236 -805 -113 -52 22 -101 41 -109 42 -8
1 -73 -93 -154 -222 -109 -174 -137 -225 -126 -232 32 -20 221 -99 307 -128
277 -92 534 -98 778 -16 144 48 323 147 487 268 l69 50 -194 194 c-106 106
-197 193 -203 193 -5 -1 -28 -17 -50 -36z"/>
</g>
</svg>
